<svg width="30" height="30" viewBox="0 0 20 20" fill="none" xmlns="http://www.w3.org/2000/svg">
<path d="M20 9.55939C20 7.66872 19.4718 5.82051 18.482 4.24848C17.4923 2.67644 16.0856 1.45119 14.4397 0.727665C12.7939 0.00413762 10.9828 -0.18517 9.2356 0.183681C7.48837 0.552532 5.88343 1.46298 4.62375 2.79988C3.36407 4.13678 2.50621 5.8401 2.15867 7.69444C1.81112 9.54878 1.98949 11.4709 2.67123 13.2176C3.35296 14.9644 4.50744 16.4573 5.98867 17.5077C7.4699 18.5581 9.21136 19.1188 10.9928 19.1188L10.9928 17.551C9.50352 17.551 8.04766 17.0823 6.80935 16.2042C5.57104 15.3261 4.6059 14.0779 4.03597 12.6177C3.46604 11.1574 3.31692 9.55052 3.60747 8.00029C3.89802 6.45006 4.61518 5.02609 5.66828 3.90844C6.72137 2.79079 8.0631 2.02966 9.52378 1.7213C10.9845 1.41294 12.4985 1.5712 13.8744 2.17607C15.2504 2.78094 16.4264 3.80525 17.2538 5.11946C18.0812 6.43368 18.5229 7.97879 18.5229 9.55939H20Z" fill="#4299E1"/>
<path d="M10.9747 17.5479H12.6803C13.1141 17.5479 13.4657 17.8995 13.4657 18.3333V18.3333C13.4657 18.7671 13.1141 19.1187 12.6803 19.1187H10.9747V17.5479Z" fill="url(#paint0_linear)"/>
<path d="M18.3755 11.3027L0.785477 11.3027C0.351691 11.3027 3.62396e-05 10.9511 3.62396e-05 10.5173V10.5173C3.62396e-05 10.0835 0.35169 9.73185 0.785477 9.73185L18.3755 9.73185V11.3027Z" fill="url(#paint1_linear)"/>
<path d="M20 9.55946C20 9.78839 19.9575 10.0151 19.875 10.2266C19.7924 10.4381 19.6714 10.6303 19.5189 10.7922C19.3664 10.954 19.1853 11.0824 18.986 11.1701C18.7867 11.2577 18.5731 11.3028 18.3574 11.3028L18.3574 9.73501C18.3791 9.73501 18.4006 9.73047 18.4207 9.72164C18.4408 9.71282 18.459 9.69989 18.4744 9.68359C18.4897 9.66729 18.5019 9.64794 18.5102 9.62664C18.5185 9.60534 18.5228 9.58251 18.5228 9.55946H20Z" fill="#4299E1"/>
<ellipse cx="15.8123" cy="18.0844" rx="1.80505" ry="1.91571" fill="#C63332"/>
<path d="M11.0108 7.01702H10.5896V5.92233H11.0108V7.01702ZM14.8014 4.82764V8.11171H11.0108V8.65905H9.32611V8.11171H7.22021V4.82764H14.8014ZM9.32611 5.37498H7.64139V7.56436H8.48375V5.92233H8.90493V7.56436H9.32611V5.37498ZM11.432 5.37498H9.74729V8.11171H10.5896V7.56436H11.432V5.37498ZM14.3803 5.37498H11.8532V7.56436H12.6955V5.92233H13.1167V7.56436H13.5379V5.92233H13.9591V7.56436H14.3803V5.37498Z" fill="#C63332"/>
<defs>
<linearGradient id="paint0_linear" x1="10.9747" y1="18.3524" x2="13.4657" y2="18.3524" gradientUnits="userSpaceOnUse">
<stop stop-color="#4299E1"/>
<stop offset="1" stop-color="#63B3ED"/>
</linearGradient>
<linearGradient id="paint1_linear" x1="3.61422e-05" y1="10.5365" x2="18.3755" y2="10.5365" gradientUnits="userSpaceOnUse">
<stop stop-color="#63B3ED"/>
<stop offset="1" stop-color="#4299E1"/>
</linearGradient>
</defs>
</svg>
